<?xml version="1.0" encoding="UTF-8"?>
<!DOCTYPE svg PUBLIC "-//W3C//DTD SVG 1.1//EN" "http://www.w3.org/Graphics/SVG/1.1/DTD/svg11.dtd">
<!-- Creator: CorelDRAW -->
<svg xmlns="http://www.w3.org/2000/svg" xml:space="preserve" width="1.70666in" height="1.70666in" version="1.1" style="shape-rendering:geometricPrecision; text-rendering:geometricPrecision; image-rendering:optimizeQuality; fill-rule:evenodd; clip-rule:evenodd"
viewBox="0 0 1707 1707"
 xmlns:xlink="http://www.w3.org/1999/xlink">
 <defs>
  <style type="text/css">
   <![CDATA[
    .fil0 {fill:url(#id0)}
   ]]>
  </style>
  <linearGradient id="id0" gradientUnits="userSpaceOnUse" x1="853.327" y1="51.3071" x2="853.327" y2="1655.35">
   <stop offset="0" style="stop-opacity:1; stop-color:#6666CC"/>
   <stop offset="0.509804" style="stop-opacity:1; stop-color:fuchsia"/>
   <stop offset="1" style="stop-opacity:1; stop-color:#FF6600"/>
  </linearGradient>
 </defs>
 <g id="Layer_x0020_1">
  <metadata id="CorelCorpID_0Corel-Layer"/>
  <path class="fil0" d="M1297 559c0,0 0,0 0,0 -36,0 -68,-19 -86,-51 -19,-36 -16,-82 11,-122 39,-61 84,-70 107,-70 45,0 84,31 98,76 12,43 1,104 -66,147 -20,13 -42,20 -64,20zm-591 1148c0,0 -1,0 -1,0 -118,-3 -217,-61 -271,-158 -101,-179 -40,-267 9,-337 45,-64 80,-115 14,-245 -38,-76 -102,-203 -54,-346 50,-147 210,-243 408,-243 194,0 409,106 420,338 11,221 -47,653 -249,866 -79,83 -172,125 -276,125zm105 -1249c-134,0 -288,59 -332,189 -34,102 4,193 50,284 87,172 27,258 -21,327 -45,65 -81,116 -5,252 41,73 114,114 204,117 81,-1 154,-34 217,-100 175,-185 239,-583 227,-807 -9,-181 -177,-262 -340,-262zm-349 -27c0,0 0,0 0,0 -71,0 -153,-52 -178,-167 -23,-108 5,-171 33,-205 30,-38 75,-59 125,-59 55,0 109,27 145,71 43,54 57,130 39,213 -20,89 -84,147 -164,147zm-20 -351c-26,0 -48,10 -63,29 -24,29 -29,78 -17,138 17,77 64,104 100,104 41,0 74,-32 86,-85 16,-75 -4,-120 -23,-145 -21,-25 -52,-41 -83,-41zm377 275c0,0 0,0 0,0 -56,0 -121,-41 -140,-131 -18,-83 4,-132 26,-159 24,-30 60,-47 99,-47 44,0 87,21 115,57 34,42 45,100 31,164 -16,70 -67,116 -131,116zm-15 -257c-8,0 -25,3 -37,17 -15,19 -19,52 -10,92 11,50 40,68 62,68 25,0 45,-21 52,-54 12,-50 -1,-80 -14,-96 -14,-17 -33,-27 -53,-27zm294 304l0 0c-36,0 -69,-17 -91,-47 -25,-35 -31,-82 -15,-130 24,-74 72,-117 130,-117 47,0 91,29 111,75 24,55 10,120 -38,173 -28,29 -62,46 -97,46zm24 -214c-21,0 -42,23 -54,61 -8,24 -6,45 4,59 14,19 42,17 64,-6 26,-30 35,-61 24,-86 -7,-17 -23,-28 -38,-28zm207 208c-12,0 -27,12 -40,33 -10,15 -13,31 -7,41 2,4 6,9 15,9l0 0c6,0 14,-3 21,-8 26,-16 37,-37 32,-56 -3,-9 -10,-19 -21,-19z"/>
 </g>
</svg>
