<?xml version="1.0" encoding="UTF-8"?>
<!DOCTYPE svg PUBLIC "-//W3C//DTD SVG 1.1//EN" "http://www.w3.org/Graphics/SVG/1.1/DTD/svg11.dtd">
<!-- Creator: CorelDRAW -->
<svg xmlns="http://www.w3.org/2000/svg" xml:space="preserve" width="512px" height="512px" version="1.1" style="shape-rendering:geometricPrecision; text-rendering:geometricPrecision; image-rendering:optimizeQuality; fill-rule:evenodd; clip-rule:evenodd"
viewBox="0 0 512 512"
 xmlns:xlink="http://www.w3.org/1999/xlink">
 <defs>
  <style type="text/css">
   <![CDATA[
    .fil0 {fill:black}
   ]]>
  </style>
 </defs>
 <g id="Layer_x0020_1">
  <metadata id="CorelCorpID_0Corel-Layer"/>
  <g id="_510546848">
   <g>
    <g id="_510543464">
     <path class="fil0" d="M464 462l-416 0c-27,0 -48,-21 -48,-47l0 -261c0,-26 21,-47 48,-47l135 0c4,0 7,3 7,7 0,4 -3,7 -7,7l-135 0c-19,0 -34,15 -34,33l0 261c0,18 15,33 34,33l416 0c19,0 34,-15 34,-33l0 -261c0,-18 -15,-33 -34,-33l-135 0c-4,0 -7,-3 -7,-7 0,-4 3,-7 7,-7l135 0c27,0 48,21 48,47l0 261c0,26 -21,47 -48,47z"/>
    </g>
    <g>
     <g id="_510526040">
      <path class="fil0" d="M242 204l-90 0c-4,0 -7,-3 -7,-7 0,-4 3,-7 7,-7l90 0c4,0 7,3 7,7 0,4 -3,7 -7,7z"/>
     </g>
     <g id="_510556952">
      <path class="fil0" d="M129 204l-53 0c-4,0 -7,-3 -7,-7 0,-4 3,-7 7,-7l53 0c4,0 7,3 7,7 0,4 -3,7 -7,7z"/>
     </g>
     <g id="_510553232">
      <path class="fil0" d="M242 248l-90 0c-4,0 -7,-3 -7,-7 0,-4 3,-7 7,-7l90 0c4,0 7,3 7,7 0,4 -3,7 -7,7z"/>
     </g>
     <g id="_510554480">
      <path class="fil0" d="M129 248l-53 0c-4,0 -7,-3 -7,-7 0,-4 3,-7 7,-7l53 0c4,0 7,3 7,7 0,4 -3,7 -7,7z"/>
     </g>
     <g id="_510549680">
      <path class="fil0" d="M242 290l-90 0c-4,0 -7,-3 -7,-7 0,-4 3,-7 7,-7l90 0c4,0 7,3 7,7 0,4 -3,7 -7,7z"/>
     </g>
     <g id="_510554456">
      <path class="fil0" d="M129 290l-53 0c-4,0 -7,-3 -7,-7 0,-4 3,-7 7,-7l53 0c4,0 7,3 7,7 0,4 -3,7 -7,7z"/>
     </g>
     <g id="_510541352">
      <path class="fil0" d="M242 335l-90 0c-4,0 -7,-4 -7,-7 0,-4 3,-7 7,-7l90 0c4,0 7,3 7,7 0,3 -3,7 -7,7z"/>
     </g>
     <g id="_510527360">
      <path class="fil0" d="M129 335l-53 0c-4,0 -7,-4 -7,-7 0,-4 3,-7 7,-7l53 0c4,0 7,3 7,7 0,3 -3,7 -7,7z"/>
     </g>
     <g id="_510529568">
      <path class="fil0" d="M242 379l-90 0c-4,0 -7,-3 -7,-7 0,-4 3,-7 7,-7l90 0c4,0 7,3 7,7 0,4 -3,7 -7,7z"/>
     </g>
     <g id="_510528104">
      <path class="fil0" d="M129 379l-53 0c-4,0 -7,-3 -7,-7 0,-4 3,-7 7,-7l53 0c4,0 7,3 7,7 0,4 -3,7 -7,7z"/>
     </g>
    </g>
    <g>
     <g id="_510555848">
      <path class="fil0" d="M450 379c-3,0 -7,-3 -7,-7l0 -37c0,-17 -11,-30 -24,-30l-19 0c-7,7 -17,12 -28,12 -10,0 -20,-5 -27,-12l-19 0c-14,0 -25,13 -25,30l0 37c0,4 -3,7 -7,7 -4,0 -7,-3 -7,-7l0 -37c0,-24 18,-44 39,-44l22 0c2,0 4,1 5,2 5,6 12,10 19,10 8,0 15,-4 20,-10 1,-1 3,-2 5,-2l22 0c21,0 38,20 38,44l0 37c0,4 -3,7 -7,7z"/>
     </g>
     <g id="_510529208">
      <path class="fil0" d="M391 379l-38 0c-4,0 -7,-3 -7,-7 0,-4 3,-7 7,-7l38 0c4,0 7,3 7,7 0,4 -3,7 -7,7z"/>
     </g>
     <g id="_510528008">
      <path class="fil0" d="M422 379c-4,0 -7,-3 -7,-7l0 -33c0,-4 3,-7 7,-7 4,0 7,3 7,7l0 33c0,4 -3,7 -7,7z"/>
     </g>
     <g id="_510544640">
      <path class="fil0" d="M322 379c-3,0 -7,-3 -7,-7l0 -33c0,-4 4,-7 7,-7 4,0 7,3 7,7l0 33c0,4 -3,7 -7,7z"/>
     </g>
     <g id="_510527408">
      <path class="fil0" d="M372 288c-31,0 -57,-27 -57,-61 0,-34 26,-62 57,-62 32,0 57,28 57,62 0,34 -25,61 -57,61zm0 -109c-23,0 -43,22 -43,48 0,26 20,47 43,47 24,0 43,-21 43,-47 0,-26 -19,-48 -43,-48z"/>
     </g>
     <g id="_510543608">
      <path class="fil0" d="M450 379l-156 0c-4,0 -7,-3 -7,-7 0,-4 3,-7 7,-7l156 0c4,0 7,3 7,7 0,4 -3,7 -7,7z"/>
     </g>
    </g>
    <g id="_510528488">
     <path class="fil0" d="M253 168c-2,0 -3,0 -4,-1l-70 -47c-2,-2 -3,-4 -3,-6l0 -57c0,-4 3,-7 7,-7l146 0c4,0 7,3 7,7l0 57c0,2 -1,4 -4,6l-76 47c-1,1 -2,1 -3,1zm-63 -58l63 43 69 -43 0 -46 -132 0 0 46z"/>
    </g>
   </g>
  </g>
 </g>
</svg>
