<?xml version="1.0" encoding="UTF-8"?>
<!DOCTYPE svg PUBLIC "-//W3C//DTD SVG 1.1//EN" "http://www.w3.org/Graphics/SVG/1.1/DTD/svg11.dtd">
<!-- Creator: CorelDRAW -->
<svg xmlns="http://www.w3.org/2000/svg" xml:space="preserve" width="512px" height="512px" version="1.1" style="shape-rendering:geometricPrecision; text-rendering:geometricPrecision; image-rendering:optimizeQuality; fill-rule:evenodd; clip-rule:evenodd"
viewBox="0 0 512 512"
 xmlns:xlink="http://www.w3.org/1999/xlink">
 <defs>
  <style type="text/css">
   <![CDATA[
    .fil0 {fill:black}
   ]]>
  </style>
 </defs>
 <g id="Layer_x0020_1">
  <metadata id="CorelCorpID_0Corel-Layer"/>
  <g id="_305453784">
   <g>
    <g>
     <path class="fil0" d="M440 512l-331 0c-21,0 -38,-17 -38,-38l0 -15c0,-4 3,-7 7,-7 4,0 7,3 7,7l0 15c0,13 11,24 24,24l331 0c13,0 24,-11 24,-24l0 -436c0,-13 -11,-24 -24,-24l-331 0c-13,0 -24,11 -24,24l0 15c0,4 -3,7 -7,7 -4,0 -7,-3 -7,-7l0 -15c0,-21 17,-38 38,-38l331 0c21,0 38,17 38,38l0 436c0,21 -17,38 -38,38zm-362 -80c-4,0 -7,-3 -7,-7l0 -90c0,-4 3,-7 7,-7 4,0 7,3 7,7l0 90c0,4 -3,7 -7,7zm0 -124c-4,0 -7,-3 -7,-7l0 -90c0,-4 3,-7 7,-7 4,0 7,3 7,7l0 90c0,4 -3,7 -7,7zm0 -124c-4,0 -7,-3 -7,-7l0 -90c0,-4 3,-7 7,-7 4,0 7,3 7,7l0 90c0,4 -3,7 -7,7z"/>
    </g>
    <g>
     <path class="fil0" d="M159 512c-4,0 -7,-3 -7,-7l0 -498c0,-4 3,-7 7,-7 4,0 7,3 7,7l0 498c0,4 -3,7 -7,7z"/>
    </g>
    <g>
     <path class="fil0" d="M99 94l-41 0c-13,0 -24,-11 -24,-24 0,-14 11,-24 24,-24l41 0c13,0 24,11 24,24 0,13 -11,24 -24,24zm-41 -34c-6,0 -10,5 -10,10 0,5 4,10 10,10l41 0c5,0 10,-5 10,-10 0,-5 -5,-10 -10,-10l-41 0z"/>
    </g>
    <g>
     <path class="fil0" d="M99 218l-41 0c-13,0 -24,-10 -24,-24 0,-13 11,-24 24,-24l41 0c13,0 24,11 24,24 0,13 -11,24 -24,24zm-41 -34c-6,0 -10,5 -10,10 0,5 4,10 10,10l41 0c5,0 10,-5 10,-10 0,-5 -5,-10 -10,-10l-41 0z"/>
    </g>
    <g>
     <path class="fil0" d="M99 342l-41 0c-14,0 -24,-10 -24,-24 0,-14 11,-24 24,-24l41 0c13,0 24,11 24,24 0,13 -10,24 -24,24zm-41 -34c-6,0 -10,5 -10,10 0,6 4,10 10,10l41 0c5,0 10,-4 10,-10 0,-5 -5,-10 -10,-10l-41 0z"/>
    </g>
    <g>
     <path class="fil0" d="M99 466l-41 0c-14,0 -24,-10 -24,-24 0,-14 11,-24 24,-24l41 0c13,0 24,11 24,24 0,13 -10,24 -24,24zm-41 -34c-6,0 -10,5 -10,10 0,6 4,10 10,10l41 0c5,0 10,-4 10,-10 0,-5 -5,-10 -10,-10l-41 0z"/>
    </g>
    <g>
     <path class="fil0" d="M315 236c-2,0 -4,-1 -5,-2l-76 -76c-10,-11 -16,-25 -16,-39 0,-15 6,-29 16,-40 13,-13 29,-19 45,-16 12,2 25,8 36,18 12,-10 24,-16 36,-18 16,-3 32,3 45,16 11,11 16,25 16,40 0,14 -5,28 -16,39l-76 76c-1,1 -3,2 -5,2zm-44 -160c-8,0 -18,4 -27,13 -8,8 -12,18 -12,30 0,11 4,21 12,29l71 71 71 -71c8,-8 12,-18 12,-29 0,-12 -4,-22 -12,-30 -26,-26 -52,-7 -66,7 -3,3 -7,3 -10,0 -9,-9 -23,-20 -39,-20z"/>
    </g>
    <g>
     <path class="fil0" d="M268 151c-2,0 -4,-1 -5,-2 -13,-13 -13,-33 0,-46 8,-8 16,-11 24,-10 4,1 7,4 6,8 -1,4 -4,6 -8,6 -3,-1 -7,1 -12,6 -7,7 -7,19 0,26 3,3 3,7 0,10 -1,1 -3,2 -5,2z"/>
    </g>
    <g>
     <path class="fil0" d="M427 304l-224 0c-4,0 -7,-3 -7,-7 0,-4 3,-7 7,-7l224 0c4,0 7,3 7,7 0,4 -3,7 -7,7z"/>
    </g>
    <g>
     <path class="fil0" d="M427 353l-224 0c-4,0 -7,-3 -7,-7 0,-4 3,-7 7,-7l224 0c4,0 7,3 7,7 0,4 -3,7 -7,7z"/>
    </g>
    <g>
     <path class="fil0" d="M427 401l-224 0c-4,0 -7,-3 -7,-7 0,-4 3,-7 7,-7l224 0c4,0 7,3 7,7 0,4 -3,7 -7,7z"/>
    </g>
    <g>
     <path class="fil0" d="M427 450l-224 0c-4,0 -7,-3 -7,-7 0,-4 3,-7 7,-7l224 0c4,0 7,3 7,7 0,4 -3,7 -7,7z"/>
    </g>
   </g>
  </g>
 </g>
</svg>
