<?xml version="1.0" encoding="UTF-8" standalone="no"?> <svg id="Layer_1" data-name="Layer 1" xmlns="http://www.w3.org/2000/svg" viewBox="0 0 128 128"><defs><style>.cls-1{fill:#2d3e50;}.cls-2{fill:#2e79bd;}</style></defs><title>b</title><path class="cls-1" d="M113.17427,26.91884a2.82746,2.82746,0,1,0-5.58177.90659l12.72244,78.30949-58.6775,8.9287L7.6725,106.16947l12.6201-78.366a2.82756,2.82756,0,0,0-5.58319-.8991L1.19432,110.83176l59.96559,9.88377.443.07225,65.2028-9.92147Z"/><path class="cls-1" d="M18.60831,100.6377c16.31382-3.19278,29.13219-.58953,41.56307,8.439a4.10875,4.10875,0,0,0,4.49272.22642c1.27754-.74922,3.925-2.30013,5.19423-3.03554,11.20795-6.49126,23.13229-8.06763,37.52642-4.96106l3.86545.83421L100.17756,7.72581l-2.46519-.04863c-14.10665-.27981-25.2606,2.36088-33.99569,8.06134C55.171,10.004,44.15977,7.21222,30.13334,7.21222h-.0494l-2.46565.00123L14.72767,101.397ZM32.54806,12.89719c12.51111.3157,22.166,3.12314,29.45649,8.555l1.66581,1.24119,1.68253-1.21864c7.46-5.40409,17.22074-8.0822,29.7863-8.16074l9.58433,81.7271C90.561,92.68619,78.49494,94.73014,67.02375,101.374c-1.03148.59766-2.96774,1.7307-4.3496,2.54066A53.17561,53.17561,0,0,0,31.065,93.69727a67.10552,67.10552,0,0,0-9.67545.72913Z"/><path class="cls-2" d="M35.50522,81.11131a63.03116,63.03116,0,0,1,9.407,1.33491,60.04049,60.04049,0,0,1,11.5485,3.7886,2.82761,2.82761,0,0,0,2.29184-5.17,65.623,65.623,0,0,0-12.62064-4.14051,68.68193,68.68193,0,0,0-10.25056-1.45549,2.8275,2.8275,0,0,0-.37614,5.64248Z"/><path class="cls-2" d="M67.97577,86.69165a2.81905,2.81905,0,0,0,1.12537-.235,60.17317,60.17317,0,0,1,12.27441-3.84843,63.298,63.298,0,0,1,9.4297-1.15129,2.82755,2.82755,0,1,0-.26447-5.64892,68.96972,68.96972,0,0,0-10.2774,1.25561,65.77052,65.77052,0,0,0-13.416,4.20647,2.82806,2.82806,0,0,0,1.12843,5.42158Z"/><path class="cls-2" d="M68.17642,66.03821a2.817,2.817,0,0,0,1.11524-.23057,60.30552,60.30552,0,0,1,12.08449-3.76206,62.04958,62.04958,0,0,1,7.4422-1.02427,2.82766,2.82766,0,0,0-.17488-5.65l-.21354.00813A67.7452,67.7452,0,0,0,80.264,56.501a65.89068,65.89068,0,0,0-13.20526,4.11121,2.828,2.828,0,0,0,1.1177,5.426Z"/><path class="cls-2" d="M37.7673,60.73905a62.1383,62.1383,0,0,1,7.14322,1.14132,60.05127,60.05127,0,0,1,11.74087,3.87527,2.82751,2.82751,0,0,0,2.31271-5.16048,65.638,65.638,0,0,0-12.83509-4.237,67.84064,67.84064,0,0,0-7.79718-1.24594,2.82754,2.82754,0,1,0-.56452,5.62683Z"/><path class="cls-2" d="M68.37769,45.413a2.81872,2.81872,0,0,0,1.106-.22658A60.26033,60.26033,0,0,1,81.37861,41.508c1.82642-.36771,3.69211-.65334,5.54491-.84909a2.82752,2.82752,0,0,0-.594-5.62376c-2.02738.21415-4.06856.52679-6.06464.92855A65.84109,65.84109,0,0,0,67.2692,39.983a2.828,2.828,0,0,0,1.10849,5.43Z"/><path class="cls-2" d="M40.01251,40.4728c1.63681.22243,3.28559.51543,4.89817.87026a60.08114,60.08114,0,0,1,11.93017,3.96256,2.82747,2.82747,0,0,0,2.32958-5.15281,65.66516,65.66516,0,0,0-13.042-4.33211c-1.76444-.38826-3.56586-.70842-5.35439-.95141a2.82751,2.82751,0,1,0-.76149,5.60351Z"/></svg>