<?xml version="1.0" encoding="UTF-8"?>
<!DOCTYPE svg PUBLIC "-//W3C//DTD SVG 1.1//EN" "http://www.w3.org/Graphics/SVG/1.1/DTD/svg11.dtd">
<!-- Creator: CorelDRAW -->
<svg xmlns="http://www.w3.org/2000/svg" xml:space="preserve" width="1.70666in" height="1.70666in" version="1.1" style="shape-rendering:geometricPrecision; text-rendering:geometricPrecision; image-rendering:optimizeQuality; fill-rule:evenodd; clip-rule:evenodd"
viewBox="0 0 1706.66 1706.66"
 xmlns:xlink="http://www.w3.org/1999/xlink"
 xmlns:xodm="http://www.corel.com/coreldraw/odm/2003">
 <defs>
  <style type="text/css">
   <![CDATA[
    .fil0 {fill:black}
   ]]>
  </style>
 </defs>
 <g id="Layer_x0020_1">
  <metadata id="CorelCorpID_0Corel-Layer"/>
  <path class="fil0" d="M1443.12 1706.65l-1179.57 0c-72.07,0 -130.69,-58.64 -130.69,-130.71l-0 -1445.24c0,-72.07 58.62,-130.69 130.69,-130.69l1179.58 0c72.06,0 130.69,58.62 130.69,130.69l0 1445.25c0,72.07 -58.63,130.7 -130.69,130.7zm-1179.57 -1666.65c-50.01,0 -90.69,40.69 -90.69,90.69l0 1445.25c0,50.02 40.69,90.69 90.69,90.69l1179.57 0c50.02,0 90.68,-40.69 90.68,-90.69l0 -1445.24c0,-50.02 -40.68,-90.69 -90.68,-90.69l-1179.57 0 0 -0.02z"/>
  <path class="fil0" d="M1238.55 506.99l-770.45 0c-29.4,0 -53.33,-23.93 -53.33,-53.33l0 -433.65c0,-11.04 8.96,-20 20,-20l837.11 0c11.04,0 20,8.96 20,20l0 433.65c0.01,29.41 -23.92,53.32 -53.32,53.32zm-783.79 -466.99l0 413.65c0,7.35 5.98,13.33 13.33,13.33l770.45 0c7.35,0 13.32,-5.98 13.32,-13.33l0 -413.66 -797.11 0z"/>
  <path class="fil0" d="M1157.22 506.99l-607.52 0c-11.04,0 -20,-8.96 -20,-20 0,-178.44 145.18,-323.62 323.62,-323.62 179.14,0 323.94,146.46 323.9,323.62 -0,11.06 -8.94,20 -20,20zm-586.82 -39.99l565.85 0c-10.29,-147.11 -133.26,-263.62 -282.93,-263.62 -149.67,0 -272.63,116.51 -282.92,263.62z"/>
  <path class="fil0" d="M937.57 506.99l-168.23 0c-46.83,0 -11.04,-123.98 83.98,-123.98 95.04,0 130.61,123.98 84.25,123.98zm-145.03 -39.99l121.55 0c-19.22,-58.35 -102.33,-58.37 -121.55,0z"/>
  <path class="fil0" d="M853.34 423.02c-13.15,0 -22.75,-12.47 -19.35,-25.18l23.14 -86.36c6.82,-25.43 45.47,-15.13 38.63,10.35l-23.14 86.36c-2.37,8.94 -10.46,14.83 -19.29,14.83z"/>
  <path class="fil0" d="M1160.65 1568.89c-73.3,0 -164.15,-39.58 -192.71,-97.1 -40.35,-81.29 24.39,-171.44 56.91,-238.5 29.78,-61.29 30.58,-128.51 2.52,-205.46 -17.97,-49.23 -29.79,-80.86 -42.35,-104.73 -25.65,-48.8 -32.17,-85.83 6.71,-141.65 107.06,-153.77 375.62,-88.2 428.37,115.18 41.27,159.13 -42.88,269.06 -62.43,424.42 -19.83,157.52 -91.65,247.85 -197.02,247.85zm1.31 -832.39c-58.17,0 -106.96,24.07 -137.4,67.78 -29.17,41.89 -23.32,63.67 -4.14,100.19 13.72,26.09 25.97,58.82 44.52,109.65 42.19,115.65 24.01,186.07 -24.31,275.47 -55.16,102.07 -88.34,193.38 76.35,233.65 141.96,34.71 187.69,-101.61 201,-207.19 19.79,-157.04 101.02,-264.41 63.42,-409.41 -28.97,-111.69 -132.32,-170.14 -219.44,-170.14z"/>
  <path class="fil0" d="M546.02 1568.89c-105.38,0 -177.22,-90.36 -197.05,-247.86 -19.56,-155.35 -103.69,-265.36 -62.44,-424.42 52.71,-203.32 321.29,-268.98 428.36,-115.18 38.88,55.83 32.35,92.86 6.71,141.65 -12.57,23.93 -24.93,57 -42.33,104.73 -54.86,150.43 8.12,202.41 50.28,299.49 50.78,116.93 12.52,199.75 -130.41,234.77 -18.43,4.52 -36.3,6.81 -53.11,6.81zm-1.35 -832.39c-87.11,0 -190.47,58.44 -219.43,170.13 -37.6,145.02 43.61,252.37 63.4,409.41 13.66,108.39 60.39,241.52 200.98,207.19 201.08,-49.11 103.08,-175.75 56.15,-272.48 -34.73,-71.57 -36.08,-148.98 -4.1,-236.63 17.96,-49.27 30.76,-83.51 44.5,-109.65 19.2,-36.51 25.04,-58.3 -4.11,-100.19 -30.42,-43.69 -79.22,-67.77 -137.39,-67.77z"/>
  <path class="fil0" d="M853.32 1542.03c-11.04,0 -20,-8.97 -20,-20l0 -778.63c0,-26.33 40,-26.33 40,0l0 778.63c0,11.03 -8.96,20 -20,20z"/>
 </g>
</svg>
